PathFileType	4	(X/Y/Z)	C:/Users/beibeiliu/ov580/test_trc\sequence.8_training_dense_right.trc
DataRate	CameraRate	NumFrames	NumMarkers	Units	OrigDataRate	OrigDataStartFrame	OrigNumFrames
120	120	8	19	mm	120	1	87
Frame#	Time	ThumbCMC			ThumbMCP			ThumbIP			ThumbTip			IndexMCP			IndexPIP			IndexTip			MiddleMCP			MiddlePIP			MiddleTip			RingMCP			RingPIP			RingTip			PinkyMCP			PinkyPIP			PinkyTip			BackHand1			BackHand2			BackHand3	
		X0	Y0	Z0	X1	Y1	Z1	X2	Y2	Z2	X3	Y3	Z3	X4	Y4	Z4	X5	Y5	Z5	X6	Y6	Z6	X7	Y7	Z7	X8	Y8	Z8	X9	Y9	Z9	X10	Y10	Z10	X11	Y11	Z11	X12	Y12	Z12	X13	Y13	Z13	X14	Y14	Z14	X15	Y15	Z15	X16	Y16	Z16	X17	Y17	Z17	X18	Y18	Z18	
0	0	117.348	32.9406	100.871	98.4639	36.9084	74.0502	96.1487	37.7174	45.6497	103.925	30.9258	22.4372	156.271	51.0529	39.6779	156.84	48.8188	6.49469	148.731	32.7196	-13.8255	182.076	36.396	39.5106	182.41	29.1716	7.56032	165.986	-0.551278	-6.25715	192.509	21.8142	45.4974	193.626	10.7207	15.9581	171.679	-13.6507	5.80116	199.701	2.19542	58.7052	205.784	-10.5711	32.5741	187.877	-27.4531	15.5654	179.581	22.3751	94.3836	170.315	22.5602	124.237	151.03	40.9783	103.271	
1	0.00833333	103.996	22.9454	96.8259	87.1434	17.7859	78.9269	81.2161	15.4397	48.1889	83.294	7.28957	26.2927	135.098	36.5662	35.0674	132.552	32.4596	2.25659	130.424	5.56644	-14.2858	158.92	28.9968	34.2549	160.161	14.1341	1.15063	149.305	-18.3093	-5.33298	175.26	17.5818	38.3669	182.26	0.398265	15.9109	159.319	-26.5687	9.09768	187.851	-0.021568	56.4297	195.064	-16.0204	30.9071	173.942	-34.5127	18.9563	166.888	21.1955	90.361	160.423	23.2465	120.255	136.94	36.9537	96.5686	
2	0.0166667	91.887	10.6382	104.775	76.822	-0.04194	81.9519	66.4873	-6.46757	55.4285	72.7846	-17.0992	34.3868	117.839	18.972	33.5323	112.37	12.4564	5.09831	114.57	-15.9804	-9.88765	143.381	14.2977	26.8766	143.393	-4.28881	1.29705	136.634	-40.1813	1.29462	162.78	5.22564	37.7184	164.255	-11.5613	14.958	149.781	-43.0396	15.7015	177.704	-5.94306	53.5182	184.622	-25.2143	33.7412	167.428	-47.4389	25.6294	156.43	15.9854	86.5381	154.403	21.3104	115.127	125.751	28.2536	96.206	
3	0.025	80.9455	1.47846	106.819	63.0034	-11.3896	91.9893	54.8205	-23.1044	63.9947	57.0979	-37.1699	43.8962	100.182	1.44359	38.2307	94.9293	-13.486	7.44285	98.3223	-42.0782	-0.899232	131.755	-4.35248	31.2538	130.957	-28.845	6.89258	124.321	-61.2418	13.9808	146.794	-10.3394	36.9396	148.275	-35.7254	17.6238	133.414	-62.5303	26.9042	164.107	-19.2989	56.2314	170.37	-39.7042	38.4174	148.79	-67.2145	38.2437	142.108	8.79557	85.4	142.342	14.6454	116.718	110.648	17.9447	92.7036	
4	0.0333333	70.9571	1.74381	109.752	52.4936	-11.2499	97.8938	40.5043	-24.6774	74.069	42.5251	-43.2693	55.2546	88.5212	-12.2043	38.7984	79.2841	-26.8358	15.0587	78.265	-59.0256	11.4018	111.982	-19.8572	37.7476	108.75	-49.2426	15.5591	97.9709	-77.5075	26.9075	129.818	-29.3361	46.0853	124.622	-56.8748	26.1434	108.508	-81.3321	41.912	148.279	-38.4669	63.3793	145.788	-65.1847	44.2317	121.863	-82.6226	55.1532	132.225	-3.37636	89.822	138.002	7.55087	116.02	107.512	10.7675	97.7866	
5	0.0416667	73.3353	13.0017	107.582	52.7424	5.20908	97.3362	37.4848	-5.3682	79.4744	33.4393	-25.6867	62.4398	81.2879	-12.8429	41.5068	72.4158	-33.2929	18.8408	52.0796	-58.5089	20.7068	104.523	-30.547	40.604	92.7506	-57.4415	22.7961	70.5881	-78.0783	38.9743	115.567	-43.1166	46.6039	105.933	-69.731	34.7954	81.1365	-82.0205	51.1021	132.206	-57.3261	65.6271	119.916	-78.9057	53.9764	88.5682	-88.6978	70.1369	131.75	-17.1263	88.6932	135.292	-1.81709	112.463	109.437	7.67309	92.2838	
6	0.05	88.4597	27.9341	105.21	64.3206	34.2353	92.819	44.0567	26.3534	71.7509	33.3006	5.33536	59.7664	85.0879	-4.99611	40.3788	64.854	-17.3392	18.6286	43.335	-39.6233	24.8349	96.4545	-27.4897	40.1863	74.535	-48.7638	26.6889	46.5305	-59.2605	46.1847	105.474	-47.977	50.5839	83.0503	-67.188	41.3799	55.7232	-69.0662	58.6014	111.383	-59.217	71.8748	89.2107	-80.8723	64.3682	59.2087	-72.5423	77.2694	128.919	-18.3107	90.7652	137.375	-5.36973	114.043	116.882	10.8242	90.9367	
7	0.0583333	108.635	42.0224	107.157	87.1586	53.5218	90.074	66.7679	52.3917	70.0178	48.7394	34.7307	56.1712	92.3418	9.91297	38.7627	67.6891	-0.0806439	19.1469	37.532	-7.50974	24.2087	92.8867	-20.3273	40.4552	64.5133	-30.178	28.2899	32.8681	-30.4781	49.6013	93.3572	-40.7697	52.5163	65.1688	-50.5709	44.6784	39.6818	-38.7276	57.8128	96.7491	-51.6641	75.098	71.1079	-63.7249	65.7094	40.3817	-50.1962	76.1541	126.669	-19.6123	87.3241	141.578	-9.03336	116.26	128.83	15.9355	92.3124	
